<?xml version="1.0" standalone="no"?><!DOCTYPE svg PUBLIC "-//W3C//DTD SVG 1.1//EN" "http://www.w3.org/Graphics/SVG/1.1/DTD/svg11.dtd"><svg class="icon" width="32px" height="32.00px" viewBox="0 0 1024 1024" version="1.1" xmlns="http://www.w3.org/2000/svg"><path fill="#2c2c2c" d="M742.4 920.576c26.112-33.792 46.08-76.8 59.904-129.024l-128-43.008c-11.264 50.688-29.184 88.064-54.272 111.616-25.088 23.552-55.808 35.328-90.624 35.328-47.616 0-86.528-18.432-116.224-55.808-29.696-37.376-44.544-99.84-44.544-187.392 0-82.944 15.36-142.848 45.568-179.712 30.208-36.864 69.632-55.296 118.272-55.296 35.328 0 65.024 10.24 89.6 31.232s40.96 49.152 48.64 85.504l131.072-33.28c-14.848-55.808-37.376-98.304-67.072-128C683.008 322.56 617.984 296.96 537.6 296.96c-91.648 0-165.888 31.744-222.208 95.744s-84.48 153.6-84.48 269.312c0 109.056 28.16 195.584 83.968 258.56 10.24 11.776 21.504 22.016 33.28 31.744-171.008-65.536-291.84-231.424-291.84-425.472 0-251.904 203.776-455.68 455.68-455.68s455.68 203.776 455.68 455.68c0 167.936-90.624 314.368-225.28 393.728z"  /></svg>